<?xml version="1.0" standalone="no"?>
<!DOCTYPE svg PUBLIC "-//W3C//DTD SVG 20010904//EN"
 "http://www.w3.org/TR/2001/REC-SVG-20010904/DTD/svg10.dtd">
<svg version="1.0" xmlns="http://www.w3.org/2000/svg"
 width="300.000000pt" height="300.000000pt" viewBox="0 0 300.000000 300.000000"
 preserveAspectRatio="xMidYMid meet">
<metadata>
Created by potrace 1.11, written by Peter Selinger 2001-2013
</metadata>
<g transform="translate(0.000000,300.000000) scale(0.100000,-0.100000)"
fill="#000000" stroke="none">
<path d="M1482 2479 c-16 -15 -33 -25 -37 -21 -4 4 -5 2 -3 -4 2 -6 -43 -57
-99 -112 -57 -56 -103 -98 -103 -94 -1 4 -7 -4 -15 -18 -8 -14 -14 -22 -15
-18 0 3 -15 -8 -33 -25 -18 -18 -32 -35 -30 -38 3 -7 -43 -49 -49 -45 -1 2
-11 -6 -20 -16 -10 -10 -15 -18 -11 -18 3 0 -2 -9 -12 -20 -10 -11 -24 -20
-31 -20 -7 0 -16 -5 -20 -12 -5 -7 -3 -8 7 -3 8 5 5 -1 -5 -13 -17 -20 -18
-22 -2 -22 9 0 15 -4 11 -10 -3 -5 6 -15 19 -22 14 -7 26 -17 28 -23 2 -5 7
-9 11 -7 5 1 6 -2 3 -7 -3 -5 2 -15 11 -22 14 -12 16 -12 8 0 -5 10 -4 12 3 7
7 -4 12 -11 12 -16 0 -13 68 -81 113 -114 20 -15 35 -32 31 -37 -3 -5 0 -8 8
-7 7 2 12 -3 10 -10 -1 -8 1 -11 6 -8 9 6 65 -47 62 -59 -1 -4 2 -10 6 -13 4
-4 4 -1 0 6 -4 6 -2 12 3 12 10 0 15 -14 12 -32 0 -5 5 -7 12 -5 6 1 11 -4 9
-11 -1 -8 2 -11 6 -8 12 7 44 -28 35 -39 -5 -4 -3 -5 3 -2 6 3 25 -9 43 -27
l32 -33 -55 -51 c-29 -28 -51 -53 -48 -56 3 -4 -2 -6 -11 -6 -9 0 -22 -9 -29
-20 -7 -11 -18 -20 -25 -20 -7 0 -12 -3 -11 -7 4 -11 -59 -73 -72 -73 -5 0 -9
-3 -8 -7 4 -10 -99 -113 -112 -113 -5 0 -9 -3 -8 -8 2 -4 -24 -34 -56 -67
l-59 -60 -42 48 c-24 26 -49 47 -56 47 -7 0 -10 3 -6 6 3 4 -36 48 -88 99 -52
51 -91 96 -87 100 4 4 2 5 -4 3 -5 -2 -22 9 -36 24 -14 15 -28 25 -31 21 -4
-3 -7 1 -7 9 0 9 -7 19 -16 22 -9 3 -12 11 -8 18 4 7 4 10 0 6 -5 -4 -26 12
-48 35 -42 44 -76 55 -85 28 -9 -25 -55 -71 -65 -65 -5 3 -7 0 -6 -8 2 -7 -3
-12 -9 -11 -7 2 -12 -2 -10 -9 1 -7 -5 -12 -13 -13 -8 0 -15 -7 -15 -15 -1 -8
-7 -14 -14 -12 -7 1 -10 -2 -7 -7 6 -9 -22 -38 -33 -33 -3 1 -6 -2 -6 -7 0
-13 -14 -26 -28 -26 -7 0 -12 -7 -12 -15 -1 -8 -7 -14 -14 -12 -7 1 -10 -2 -7
-7 7 -11 -19 -33 -28 -23 -4 4 -6 0 -4 -8 1 -8 -4 -14 -12 -15 -8 0 -15 -7
-15 -15 -1 -8 -7 -14 -14 -12 -7 1 -10 -2 -7 -7 7 -11 -19 -33 -28 -23 -4 4
-6 2 -4 -3 1 -6 -27 -41 -64 -78 -37 -36 -65 -72 -62 -79 3 -7 24 -28 48 -45
35 -27 158 -148 414 -409 19 -19 38 -34 44 -34 13 0 234 221 230 232 -1 4 2 7
7 6 11 -4 87 73 83 84 -1 4 1 7 6 6 4 -2 30 19 57 47 28 27 39 40 25 30 l-25
-20 24 27 c13 15 28 25 34 21 6 -3 7 -2 4 4 -3 5 3 17 14 26 10 9 19 13 19 9
0 -4 5 0 10 8 7 12 11 10 19 -10 5 -14 10 -21 10 -16 1 5 14 -5 29 -22 16 -18
32 -29 35 -25 4 3 7 -1 7 -9 0 -9 7 -19 16 -22 8 -3 12 -11 8 -17 -4 -7 -3
-10 2 -7 11 6 104 -89 95 -97 -3 -4 -1 -6 4 -5 18 4 35 0 33 -7 -3 -11 95
-113 108 -113 14 0 54 -47 47 -54 -4 -3 1 -6 10 -6 9 0 28 -15 43 -34 l27 -34
22 22 c11 11 24 29 28 40 4 10 13 16 22 13 9 -4 12 -1 9 7 -3 7 3 19 13 27 17
13 17 13 3 -6 -14 -19 -14 -19 3 -6 9 7 17 19 17 25 0 15 42 56 57 56 6 0 17
8 24 17 13 17 12 17 -6 4 -11 -8 -8 -3 7 12 28 28 45 36 32 15 -4 -7 -3 -8 5
-4 6 4 9 12 5 17 -7 12 231 251 240 242 3 -4 6 -1 6 6 0 6 109 -98 243 -232
138 -138 249 -241 256 -239 18 6 51 40 51 52 0 6 3 9 8 8 9 -4 138 125 134
135 -1 4 2 7 8 7 13 0 90 77 90 90 0 6 3 9 8 8 10 -4 101 90 94 96 -3 4 0 6 7
6 13 0 75 60 63 61 -4 0 3 4 16 9 12 5 22 16 22 24 0 17 -160 182 -172 178 -5
-1 -8 4 -8 12 0 8 -7 17 -16 20 -8 3 -12 11 -8 17 4 8 3 9 -4 5 -7 -4 -12 -2
-12 4 0 6 -4 8 -10 5 -10 -6 -15 9 -10 30 1 6 -1 7 -5 3 -10 -9 -45 24 -38 35
3 6 1 7 -5 3 -7 -4 -12 -2 -12 4 0 6 -4 9 -9 5 -5 -3 -12 4 -16 15 -3 11 -11
20 -16 20 -6 0 -7 5 -4 10 4 6 3 9 -2 8 -13 -4 -63 49 -55 58 4 4 2 4 -4 1
-13 -7 -45 28 -36 39 4 4 2 4 -5 0 -6 -3 -16 1 -21 10 -17 31 -56 25 -81 -12
-13 -19 -30 -34 -38 -34 -8 0 -12 -4 -8 -9 3 -5 -4 -12 -15 -16 -11 -3 -19 -9
-19 -13 3 -19 -2 -32 -12 -32 -5 0 -7 6 -3 13 5 8 2 8 -9 -2 -18 -15 -23 -26
-7 -16 6 3 10 1 10 -4 0 -10 -14 -15 -32 -12 -5 0 -7 -2 -7 -7 3 -18 -2 -32
-12 -32 -5 0 -7 6 -3 13 4 7 3 9 -2 4 -5 -5 -9 -14 -9 -20 -1 -7 -7 -11 -14
-9 -7 1 -11 -3 -9 -10 3 -7 -1 -18 -8 -25 -16 -17 -27 -17 -18 0 5 8 2 8 -9
-2 -18 -15 -23 -26 -7 -16 6 3 10 1 10 -4 0 -10 -14 -15 -32 -12 -5 0 -7 -2
-6 -7 5 -14 -30 -54 -41 -47 -7 3 -11 3 -10 -2 4 -15 -13 -43 -22 -37 -5 3 -9
1 -9 -5 0 -5 -23 -32 -51 -60 l-51 -51 -244 246 c-199 200 -243 248 -233 260
6 7 15 11 20 8 5 -3 8 0 7 8 -2 7 3 12 9 11 7 -2 12 3 10 10 -1 6 4 11 11 9 8
-1 11 1 8 6 -5 9 400 413 407 406 2 -2 4 4 4 14 0 18 -153 183 -162 174 -3 -3
-5 2 -5 10 0 9 -10 23 -22 32 -13 9 -17 14 -9 10 9 -5 12 -3 7 4 -4 7 -11 12
-17 12 -15 0 -59 42 -53 52 3 4 -2 8 -10 8 -9 0 -16 6 -16 14 0 8 -5 18 -12
22 -7 5 -8 3 -3 -7 8 -12 6 -12 -8 0 -9 7 -14 17 -11 22 3 5 0 9 -5 9 -15 0
-101 86 -101 100 0 6 -4 9 -9 6 -5 -3 -15 2 -22 11 -10 12 -10 14 -1 9 18 -11
15 -3 -7 16 -17 14 -20 14 -49 -13z"/>
<path d="M1290 1686 c0 -2 8 -10 18 -17 15 -13 16 -12 3 4 -13 16 -21 21 -21
13z"/>
<path d="M459 1443 c-13 -16 -12 -17 4 -4 9 7 17 15 17 17 0 8 -8 3 -21 -13z"/>
<path d="M1635 620 c-3 -6 1 -7 9 -4 18 7 21 14 7 14 -6 0 -13 -4 -16 -10z"/>
</g>
</svg>
